<?xml version="1.0" encoding="iso-8859-1"?>
<!-- Generator: Adobe Illustrator 23.0.5, SVG Export Plug-In . SVG Version: 6.00 Build 0)  -->
<svg version="1.1" xmlns="http://www.w3.org/2000/svg" xmlns:xlink="http://www.w3.org/1999/xlink" x="0px" y="0px"
	 viewBox="0 0 492 492" style="enable-background:new 0 0 492 492;" xml:space="preserve">
<g id="Master_Layer_2">
</g>
<g id="Layer_1">
	<g>
		<g>
			<g>
				<g>
					<g>
						<g>
							<g>
								<path style="fill-rule:evenodd;clip-rule:evenodd;fill:#212121;" d="M202.796,377.834c-2.376,0-4.584-1.464-5.424-3.84
									c-6.024-16.872-3.288-33.216-0.864-47.64c2.424-14.544,4.536-27.12-2.28-37.44c-2.88-4.392-8.496-8.16-15-12.528
									c-9.984-6.72-22.416-15.072-30.144-29.904c-3.168-6.096-8.616-12.624-14.376-12.672c-0.024,0-0.048,0-0.072,0
									c-3.408,0-5.448,2.448-6.552,4.488c-2.16,3.984-2.712,9.912-1.512,16.68c1.536,8.64,5.856,18.552,12.552,28.656
									c1.752,2.664,1.032,6.24-1.632,7.992s-6.24,1.032-7.992-1.632c-7.656-11.568-12.456-22.68-14.28-33
									c-1.68-9.456-0.72-17.808,2.736-24.192c3.624-6.696,9.72-10.512,16.68-10.512c0.048,0,0.12,0,0.168,0
									c9.36,0.072,18.288,6.96,24.504,18.864c6.384,12.216,16.992,19.368,26.352,25.68c7.2,4.848,14.016,9.432,18.192,15.744
									c9.288,14.112,6.6,30.168,4.008,45.696c-2.28,13.68-4.656,27.792,0.36,41.856c1.056,3-0.504,6.288-3.504,7.368
									C204.092,377.714,203.444,377.834,202.796,377.834z"/>
							</g>
						</g>
						<g>
							<g>
								<path style="fill-rule:evenodd;clip-rule:evenodd;fill:#212121;" d="M121.868,378.122c-0.24,0-0.48-0.024-0.744-0.048
									c-3.144-0.408-5.376-3.288-4.968-6.456c3.072-23.904-1.344-33.528-9.456-41.28c-21.528-20.592-28.752-39.888-34.536-55.368
									c-0.36-0.936-0.696-1.872-1.056-2.808c-4.32-11.448-7.992-36.936-8.928-61.992c-0.48-13.152-0.168-25.08,0.912-34.488
									c1.368-11.856,3.912-19.728,7.752-24.048c2.352-2.64,4.896-4.56,7.512-5.712c2.952-1.272,6.048-1.56,9.024-0.864
									c5.376,1.296,12.744,6.432,17.232,23.568c0.264,0.96,0.576,2.808,1.344,7.248c3.144,18.312,12.72,74.04,27.576,98.328
									c1.656,2.712,0.816,6.264-1.896,7.92c-2.712,1.656-6.264,0.816-7.92-1.896c-16.056-26.184-25.56-81.552-29.136-102.408
									c-0.504-2.928-0.984-5.688-1.128-6.288c-2.904-11.088-6.888-14.808-8.784-15.264c-1.896-0.456-4.296,1.968-5.232,3.024
									c-3.384,3.792-6.912,19.272-5.76,50.448c0.888,23.568,4.32,48.096,8.208,58.344c0.36,0.936,0.696,1.872,1.056,2.832
									c5.376,14.4,12.072,32.304,31.704,51.072c6.048,5.784,9.864,11.952,11.952,19.416c2.352,8.376,2.664,18.432,0.96,31.656
									C127.196,376.01,124.724,378.122,121.868,378.122z"/>
							</g>
						</g>
					</g>
					<g>
						<g>
							<path style="fill-rule:evenodd;clip-rule:evenodd;fill:#212121;" d="M229.34,425.834c-3.192,0-5.76-2.568-5.76-5.76v-41.952
								h-122.4v41.952c0,3.192-2.568,5.76-5.76,5.76s-5.76-2.568-5.76-5.76v-47.712c0-3.192,2.568-5.76,5.76-5.76h133.92
								c3.192,0,5.76,2.568,5.76,5.76v47.712C235.124,423.266,232.532,425.834,229.34,425.834z"/>
						</g>
					</g>
					<g>
						<g>
							<g>
								<g>
									<path style="fill-rule:evenodd;clip-rule:evenodd;fill:#212121;" d="M289.724,377.834c-0.648,0-1.296-0.12-1.944-0.336
										c-3-1.056-4.56-4.368-3.504-7.368c5.016-14.064,2.64-28.2,0.36-41.856c-2.592-15.528-5.28-31.584,4.008-45.696
										c4.152-6.312,10.968-10.896,18.192-15.744c9.36-6.312,19.992-13.44,26.352-25.68c6.216-11.904,15.144-18.792,24.504-18.864
										c0.048,0,0.12,0,0.168,0c6.984,0,13.056,3.816,16.68,10.512c3.456,6.36,4.416,14.736,2.736,24.192
										c-1.824,10.32-6.624,21.432-14.28,33c-1.752,2.664-5.328,3.384-7.992,1.632c-2.664-1.752-3.384-5.328-1.632-7.992
										c6.672-10.104,11.016-20.016,12.552-28.656c1.2-6.768,0.648-12.672-1.512-16.68c-1.128-2.064-3.168-4.488-6.552-4.488
										c-0.024,0-0.048,0-0.072,0c-5.76,0.048-11.208,6.576-14.376,12.672c-7.728,14.832-20.16,23.184-30.144,29.904
										c-6.504,4.368-12.096,8.136-15,12.528c-6.816,10.344-4.704,22.896-2.28,37.44c2.424,14.424,5.136,30.744-0.864,47.64
										C294.308,376.346,292.076,377.834,289.724,377.834z"/>
								</g>
							</g>
							<g>
								<g>
									<path style="fill-rule:evenodd;clip-rule:evenodd;fill:#212121;" d="M370.652,378.122c-2.856,0-5.328-2.112-5.712-5.016
										c-1.704-13.224-1.392-23.28,0.96-31.656c2.112-7.464,5.904-13.632,11.952-19.416
										c19.632-18.768,26.328-36.696,31.704-51.072c0.36-0.96,0.72-1.896,1.056-2.832c3.864-10.248,7.32-34.776,8.208-58.344
										c1.176-31.176-2.376-46.656-5.76-50.448c-0.936-1.056-3.36-3.48-5.232-3.024c-1.896,0.456-5.88,4.176-8.784,15.288
										c-0.144,0.6-0.624,3.36-1.128,6.264c-3.576,20.856-13.08,76.224-29.112,102.384c-1.656,2.712-5.208,3.576-7.92,1.896
										c-2.712-1.656-3.576-5.208-1.896-7.92c14.88-24.288,24.432-80.016,27.576-98.328c0.768-4.44,1.08-6.288,1.344-7.248
										c4.488-17.136,11.856-22.272,17.232-23.568c2.952-0.72,6.072-0.408,9.024,0.864c2.64,1.128,5.16,3.048,7.512,5.712
										c3.864,4.32,6.408,12.192,7.752,24.048c1.08,9.432,1.392,21.36,0.912,34.488c-0.936,25.056-4.608,50.544-8.928,61.992
										c-0.336,0.912-0.696,1.848-1.056,2.808c-5.784,15.504-13.008,34.776-34.536,55.368c-8.112,7.752-12.528,17.376-9.456,41.28
										c0.408,3.144-1.824,6.048-4.968,6.456C371.132,378.098,370.892,378.122,370.652,378.122z"/>
								</g>
							</g>
						</g>
						<g>
							<g>
								<path style="fill-rule:evenodd;clip-rule:evenodd;fill:#212121;" d="M397.076,425.834c-3.192,0-5.76-2.568-5.76-5.76
									v-41.952h-122.4v41.952c0,3.192-2.568,5.76-5.76,5.76c-3.192,0-5.76-2.568-5.76-5.76v-47.712c0-3.192,2.568-5.76,5.76-5.76
									h133.92c3.192,0,5.76,2.568,5.76,5.76v47.712C402.836,423.266,400.268,425.834,397.076,425.834z"/>
							</g>
						</g>
					</g>
				</g>
				<g>
					<g>
						<g>
							<path style="fill-rule:evenodd;clip-rule:evenodd;fill:#212121;" d="M313.724,230.042H177.572c-3.192,0-5.76-2.568-5.76-5.76
								v-82.8c0-3.192,2.568-5.76,5.76-5.76c3.192,0,5.76,2.568,5.76,5.76v77.016H307.94v-77.016c0-3.192,2.568-5.76,5.76-5.76
								c3.192,0,5.76,2.568,5.76,5.76v82.776C319.484,227.45,316.892,230.042,313.724,230.042z"/>
						</g>
					</g>
					<g>
						<g>
							<path style="fill-rule:evenodd;clip-rule:evenodd;fill:#212121;" d="M331.724,165.266c-1.464,0-2.952-0.552-4.08-1.68
								l-82.008-82.008l-82.008,81.984c-2.256,2.256-5.904,2.256-8.136,0c-2.256-2.256-2.256-5.904,0-8.136l86.088-86.088
								c2.256-2.256,5.904-2.256,8.136,0l86.088,86.088c2.256,2.256,2.256,5.904,0,8.136
								C334.676,164.69,333.188,165.266,331.724,165.266z"/>
						</g>
					</g>
					<g>
						<g>
							<path style="fill-rule:evenodd;clip-rule:evenodd;fill:#212121;" d="M276.452,200.45H214.82c-3.192,0-5.76-2.568-5.76-5.76
								v-47.592c0-3.192,2.568-5.76,5.76-5.76h61.632c3.192,0,5.76,2.568,5.76,5.76v47.592
								C282.212,197.858,279.644,200.45,276.452,200.45L276.452,200.45z M220.58,188.93h50.112v-36.072H220.58V188.93z"/>
						</g>
					</g>
					<g>
						<g>
							<path style="fill-rule:evenodd;clip-rule:evenodd;fill:#212121;" d="M305.252,138.77c-3.192,0-5.76-2.568-5.76-5.76V86.474
								h-11.52v23.52c0,3.192-2.568,5.76-5.76,5.76c-3.192,0-5.76-2.568-5.76-5.76v-29.28c0-3.192,2.568-5.76,5.76-5.76h23.04
								c3.192,0,5.76,2.568,5.76,5.76v52.32C311.012,136.202,308.42,138.77,305.252,138.77z"/>
						</g>
					</g>
				</g>
			</g>
		</g>
	</g>
</g>
</svg>
